<svg xmlns="http://www.w3.org/2000/svg" xmlns:xlink="http://www.w3.org/1999/xlink" viewBox="0 0 120 33.35"><defs><style>.cls-1{fill:none;}.cls-2{fill:#2d2e82;}.cls-3{fill:#1d1d1b;}.cls-4{clip-path:url(#clip-path);}.cls-5{fill:url(#Sfumatura_senza_nome_4);}.cls-6{clip-path:url(#clip-path-2);}.cls-7{fill:url(#Sfumatura_senza_nome_5);}</style><clipPath id="clip-path"><path class="cls-1" d="M70.47,11.47q0-7.83,4.33-7.83T79,11.47v2.78a.69.69,0,0,1-.59.56H70.47Zm-2.56-8.8c-1.67,1.78-2.49,5-2.49,9.62v2.52H50.69a.9.9,0,0,1-.23-.08.63.63,0,0,1-.36-.48V11.47q0-7.83,4.19-7.83t4.33,7.83V13.6h5.05V12.29q0-6.94-2.49-9.62a9.17,9.17,0,0,0-7-2.66c-3,0-5.3.88-6.86,2.64S45,7.62,45,12.29V16.1a2.63,2.63,0,0,0,2.79,2.45H58.62v3.34q0,7.83-4.26,7.83a4,4,0,0,1-3.2-1.29Q50,27.15,49.57,23.64l-4.46.64q.47,5.1,2.73,7.08c1.51,1.33,3.69,2,6.56,2a8.83,8.83,0,0,0,6.78-2.66q2.49-2.65,2.49-9.63V18.55H81.32a2.63,2.63,0,0,0,2.79-2.45V12.29c0-4.67-.77-7.89-2.33-9.64S77.94,0,74.93,0a9.17,9.17,0,0,0-7,2.66"/></clipPath><linearGradient id="Sfumatura_senza_nome_4" x1="143.41" y1="1075.58" x2="143.98" y2="1075.58" gradientTransform="matrix(69.13, 0, 0, -69.13, -9869.65, 74376.45)" gradientUnits="userSpaceOnUse"><stop offset="0" stop-color="#2d2e82"/><stop offset="1" stop-color="#e95a0c"/></linearGradient><clipPath id="clip-path-2"><path class="cls-1" d="M65.42,19.76v1.3c0,4.65.82,7.86,2.49,9.63a8.84,8.84,0,0,0,6.79,2.66q4.29,0,6.55-2T84,24.28l-4.46-.64c-.31,2.34-.85,3.94-1.6,4.79a4,4,0,0,1-3.19,1.29q-4.26,0-4.26-7.83V19.76Z"/></clipPath><linearGradient id="Sfumatura_senza_nome_5" x1="137.85" y1="1080.04" x2="138.41" y2="1080.04" gradientTransform="matrix(32.79, 0, 0, -32.79, -4454.72, 35442.17)" gradientUnits="userSpaceOnUse"><stop offset="0" stop-color="#a24657"/><stop offset="1" stop-color="#e95a0c"/></linearGradient></defs><g id="Layer_2" data-name="Layer 2"><g id="Livello_1" data-name="Livello 1"><path class="cls-2" d="M6,0l4.35,0c1.46,0,2.9,0,4.34.07s2.79.11,4.08.24L18.51,4H7.24a2.89,2.89,0,0,0-2.18.72A3.28,3.28,0,0,0,4.39,7V33.06H0v-27A6,6,0,0,1,1.62,1.6,5.9,5.9,0,0,1,6,0M.75,14.31H16.84V18H.75Z"/><path class="cls-2" d="M30.65,0a17,17,0,0,1,5.81.83,5.65,5.65,0,0,1,3.22,2.88,13.38,13.38,0,0,1,1,5.75,14.16,14.16,0,0,1-.57,4.35,5.76,5.76,0,0,1-1.78,2.75,6.41,6.41,0,0,1-3.26,1.27v.24a4.3,4.3,0,0,1,1.49.76A6.77,6.77,0,0,1,38,20.36a6.7,6.7,0,0,1,1,2.44l2.85,10.26H37.14L34.51,22.89a5.22,5.22,0,0,0-1.45-2.55,3.72,3.72,0,0,0-2.41-.76c-1.85,0-3.42,0-4.74,0s-2.42,0-3.31-.07-1.62,0-2.17,0l.13-3.78h10a9.85,9.85,0,0,0,3.38-.55,3.17,3.17,0,0,0,1.77-1.77,9.31,9.31,0,0,0,.55-3.6,9.14,9.14,0,0,0-.55-3.57,3.2,3.2,0,0,0-1.77-1.75,9.33,9.33,0,0,0-3.38-.49q-3.69,0-6.36,0c-1.78,0-3,0-3.6,0L20,.43C21.1.3,22.15.21,23.15.14S25.23,0,26.41,0l4.24,0M24.33,33.06H20V.43h4.34Z"/><rect class="cls-3" x="88.69" width="1.1" height="33.32"/><path class="cls-3" d="M120,0V32.59c0,.49-.22.73-.66.73H117.5a.85.85,0,0,1-.46-.12.82.82,0,0,1-.33-.41L102.65,4.35q-.39-.82-.81-1.65c-.28-.54-.55-1.09-.81-1.64h-1.1V33.32h-1.1V.72q0-.72.66-.72h1.71a.85.85,0,0,1,.46.12.87.87,0,0,1,.33.41l13.75,27.81,1,2,1,2h1.23V0Z"/><g class="cls-4"><rect class="cls-5" x="44.98" y="0.01" width="39.13" height="33.34"/></g><g class="cls-6"><rect class="cls-7" x="65.42" y="19.76" width="18.56" height="13.59"/></g></g></g></svg>